<svg id="logo-technomart" data-name="logo-technomart" xmlns="http://www.w3.org/2000/svg" viewBox="0 0 109.23 17.29"><g style="isolation:isolate"><path d="M4.26,17.35V2.22H.42V.54h9.85V2.22H6.42V17.35Z" transform="translate(-0.42 -0.3)"/><path d="M12.19,17.35V.54h8.16V2.22h-6V7.74h5.28V9.42H14.35v6.25h6v1.68Z" transform="translate(-0.42 -0.3)"/><path d="M21.67,17.35l3.6-8.65L22,.54h2.16l2.64,6.72L29.47.54h2.16L28.39,8.7,32,17.35H29.83l-3-7.21-3,7.21Z" transform="translate(-0.42 -0.3)"/><path d="M34,17.35V.54h2.16V8h5V.54H43.4V17.35H41.23V9.66h-5v7.69Z" transform="translate(-0.42 -0.3)"/><path d="M51.44,17.59a5,5,0,0,1-2.77-.76,4.71,4.71,0,0,1-1.78-2.64,17.64,17.64,0,0,1-.61-5.25,17.61,17.61,0,0,1,.61-5.24,4.71,4.71,0,0,1,1.78-2.64,5.45,5.45,0,0,1,5.55,0A4.75,4.75,0,0,1,56,3.7a17.61,17.61,0,0,1,.61,5.24A17.64,17.64,0,0,1,56,14.19a4.75,4.75,0,0,1-1.77,2.64A5,5,0,0,1,51.44,17.59Zm0-1.44a2.1,2.1,0,0,0,1.11-.33,2.86,2.86,0,0,0,1-1.11,7.47,7.47,0,0,0,.67-2.2,21.9,21.9,0,0,0,.24-3.57,21.68,21.68,0,0,0-.24-3.56,7.47,7.47,0,0,0-.67-2.2,2.79,2.79,0,0,0-1-1.11,2,2,0,0,0-2.23,0,2.77,2.77,0,0,0-1,1.11,7.18,7.18,0,0,0-.67,2.2,21.68,21.68,0,0,0-.24,3.56,21.9,21.9,0,0,0,.24,3.57,7.18,7.18,0,0,0,.67,2.2,2.85,2.85,0,0,0,1,1.11A2.11,2.11,0,0,0,51.44,16.15Z" transform="translate(-0.42 -0.3)"/><path d="M59.12,17.35l1-16.81h2.64l3.91,11.52h.1L70.64.54h2.65l1,16.81H72.08L71.37,4.86h-.13L67.76,15.19H65.6L62.12,4.86H62l-.72,12.49Z" transform="translate(-0.42 -0.3)"/><path d="M76,17.35,80.13.54h3.12l4.08,16.81H85.17L84.09,13h-4.8l-1.08,4.32Zm3.61-6h4.08l-2-8.4h-.1Z" transform="translate(-0.42 -0.3)"/><path d="M89.49,17.35V.78A11.76,11.76,0,0,1,91.33.41a17.6,17.6,0,0,1,2-.11,7.43,7.43,0,0,1,3.09.55A3.36,3.36,0,0,1,98.1,2.71a10.2,10.2,0,0,1,.51,3.59A11,11,0,0,1,98.12,10a3.39,3.39,0,0,1-1.5,1.89,5.29,5.29,0,0,1-2.57.56,12,12,0,0,1-1.23-.08c-.48,0-.86-.1-1.17-.16v5.16Zm2.16-6.61h1.68a3.64,3.64,0,0,0,1.78-.38,2.33,2.33,0,0,0,1-1.36,9,9,0,0,0,.32-2.7,9,9,0,0,0-.32-2.71,2.28,2.28,0,0,0-1-1.34,3.64,3.64,0,0,0-1.78-.39H91.65Z" transform="translate(-0.42 -0.3)"/><path d="M103.65,17.35V2.22H99.81V.54h9.85V2.22h-3.84V17.35Z" transform="translate(-0.42 -0.3)"/></g></svg>
