<?xml version="1.0" encoding="utf-8"?><svg data-name="logo-technomart" xmlns="http://www.w3.org/2000/svg" viewBox="0 0 109.23 17.29" width="109.23" height="17.29"><g style="isolation:isolate"><path d="M3.84 17.05V1.92H0V.24h9.85v1.68H6v15.13zM11.77 17.05V.24h8.16v1.68h-6v5.52h5.28v1.68h-5.28v6.25h6v1.68zM21.25 17.05l3.6-8.65L21.58.24h2.16l2.64 6.72L29.05.24h2.16L27.97 8.4l3.61 8.65h-2.17l-3-7.21-3 7.21zM33.58 17.05V.24h2.16V7.7h5V.24h2.24v16.81h-2.17V9.36h-5v7.69zM51.02 17.29a5 5 0 01-2.77-.76 4.71 4.71 0 01-1.78-2.64 17.64 17.64 0 01-.61-5.25 17.61 17.61 0 01.61-5.24A4.71 4.71 0 0148.25.76a5.45 5.45 0 015.55 0 4.75 4.75 0 011.78 2.64 17.61 17.61 0 01.61 5.24 17.64 17.64 0 01-.61 5.25 4.75 4.75 0 01-1.77 2.64 5 5 0 01-2.79.76zm0-1.44a2.1 2.1 0 001.11-.33 2.86 2.86 0 001-1.11 7.47 7.47 0 00.67-2.2 21.9 21.9 0 00.24-3.57 21.68 21.68 0 00-.24-3.56 7.47 7.47 0 00-.67-2.2 2.79 2.79 0 00-1-1.11 2 2 0 00-2.23 0 2.77 2.77 0 00-1 1.11 7.18 7.18 0 00-.67 2.2 21.68 21.68 0 00-.24 3.56 21.9 21.9 0 00.24 3.57 7.18 7.18 0 00.67 2.2 2.85 2.85 0 001 1.11 2.11 2.11 0 001.12.33zM58.7 17.05l1-16.81h2.64l3.91 11.52h.1L70.22.24h2.65l1 16.81h-2.21l-.71-12.49h-.13l-3.48 10.33h-2.16L61.7 4.56h-.12l-.72 12.49zM75.58 17.05L79.71.24h3.12l4.08 16.81h-2.16l-1.08-4.35h-4.8l-1.08 4.32zm3.61-6h4.08l-2-8.4h-.1zM89.07 17.05V.48a11.76 11.76 0 011.84-.37 17.6 17.6 0 012-.11A7.43 7.43 0 0196 .55a3.36 3.36 0 011.68 1.86A10.2 10.2 0 0198.19 6a11 11 0 01-.49 3.7 3.39 3.39 0 01-1.5 1.89 5.29 5.29 0 01-2.57.56 12 12 0 01-1.23-.08c-.48 0-.86-.1-1.17-.16v5.16zm2.16-6.61h1.68a3.64 3.64 0 001.78-.38 2.33 2.33 0 001-1.36 9 9 0 00.32-2.7 9 9 0 00-.32-2.71 2.28 2.28 0 00-1-1.34 3.64 3.64 0 00-1.78-.39h-1.68zM103.23 17.05V1.92h-3.84V.24h9.85v1.68h-3.84v15.13z"/></g></svg>