<?xml version="1.0" encoding="utf-8"?><svg viewBox="0 0 141 38" xmlns="http://www.w3.org/2000/svg" xmlns:xlink="http://www.w3.org/1999/xlink"><style>:root>svg{display:none}:root>svg:target{display:block}</style><svg viewBox="0 0 21 21" id="icon-close" xmlns="http://www.w3.org/2000/svg"><path d="M13.273 10.5l7.422-7.422a1.003 1.003 0 000-1.414L19.336.305a1.003 1.003 0 00-1.414 0L10.5 7.727 3.078.305a1.003 1.003 0 00-1.414 0L.305 1.664a1.003 1.003 0 000 1.414L7.727 10.5.306 17.922a1.003 1.003 0 000 1.414l1.359 1.359a1.003 1.003 0 001.414 0l7.422-7.422 7.422 7.422a1.003 1.003 0 001.414 0l1.359-1.359a1.003 1.003 0 000-1.414L13.273 10.5z"/></svg><svg viewBox="0 0 11 10" id="icon-down-dir" xmlns="http://www.w3.org/2000/svg"><path d="M5.5 10L0 0h11"/></svg><svg viewBox="0 0 12 22" id="icon-fb" xmlns="http://www.w3.org/2000/svg"><path d="M12 4V0H8a4 4 0 00-4 4v4H0v4h4v10h4V12h4V8H8V4h4z"/></svg><svg viewBox="0 0 21 21" id="icon-insta" xmlns="http://www.w3.org/2000/svg"><path d="M18 0H3C1.35 0 0 1.35 0 3v15c0 1.65 1.35 3 3 3h15c1.65 0 3-1.35 3-3V3c0-1.65-1.35-3-3-3zm-7.5 7c1.93 0 3.5 1.57 3.5 3.5S12.43 14 10.5 14 7 12.43 7 10.5 8.57 7 10.5 7zM18 18H3V9h1.181A6.504 6.504 0 004 10.5a6.5 6.5 0 1013 0 6.45 6.45 0 00-.181-1.5H18v9zm0-11h-4V3h4v4z"/></svg><svg viewBox="0 0 17 17" id="icon-search" xmlns="http://www.w3.org/2000/svg"><path d="M17 15.586l-3.542-3.542A7.465 7.465 0 0015 7.5 7.5 7.5 0 107.5 15c1.71 0 3.282-.579 4.544-1.542L15.586 17 17 15.586zM2 7.5C2 4.467 4.467 2 7.5 2 10.532 2 13 4.467 13 7.5c0 3.032-2.468 5.5-5.5 5.5A5.506 5.506 0 012 7.5z"/></svg><svg viewBox="0 0 11 10" id="icon-up-dir" xmlns="http://www.w3.org/2000/svg"><path d="M5.5 0L0 10h11z"/></svg><svg viewBox="0 0 26 15" id="icon-vk" xmlns="http://www.w3.org/2000/svg"><path d="M16.138 11.51c.956-.309 2.18 2.04 3.483 2.939.978.681 1.727.534 1.727.534l3.473-.05s1.815-.112.957-1.554c-.071-.12-.503-1.069-2.585-3.022-2.177-2.043-1.882-1.712.739-5.244 1.597-2.153 2.236-3.468 2.036-4.028-.192-.539-1.365-.399-1.365-.399L20.69.713c-.381.001-.704.119-.851.515-.003.004-.621 1.666-1.445 3.079-1.741 2.989-2.436 3.148-2.724 2.961-.661-.433-.494-1.737-.494-2.664 0-2.897.432-4.105-.846-4.417-.427-.104-.739-.172-1.828-.182-1.392-.021-2.574 0-3.244.329-.445.223-.786.712-.579.74.26.035.843.16 1.155.586.401.552.389 1.789.389 1.789s.229 3.411-.54 3.834c-.528.29-1.25-.302-2.803-3.016-.793-1.388-1.392-2.922-1.392-2.922s-.116-.285-.326-.441c-.25-.185-.6-.244-.6-.244L.848.684S.29.7.085.946c-.182.218-.015.668-.015.668s2.909 6.881 6.203 10.347c3.02 3.182 6.452 2.971 6.452 2.971h1.555s.469-.054.709-.312c.224-.24.214-.691.214-.691s-.031-2.109.935-2.419z"/></svg><svg data-name="logo-technomart" viewBox="0 0 109.23 17.29" id="logo" xmlns="http://www.w3.org/2000/svg"><g style="isolation:isolate"><path d="M3.84 17.05V1.92H0V.24h9.85v1.68H6v15.13zM11.77 17.05V.24h8.16v1.68h-6v5.52h5.28v1.68h-5.28v6.25h6v1.68zM21.25 17.05l3.6-8.65L21.58.24h2.16l2.64 6.72L29.05.24h2.16L27.97 8.4l3.61 8.65h-2.17l-3-7.21-3 7.21zM33.58 17.05V.24h2.16V7.7h5V.24h2.24v16.81h-2.17V9.36h-5v7.69zM51.02 17.29a5 5 0 01-2.77-.76 4.71 4.71 0 01-1.78-2.64 17.64 17.64 0 01-.61-5.25 17.61 17.61 0 01.61-5.24A4.71 4.71 0 0148.25.76a5.45 5.45 0 015.55 0 4.75 4.75 0 011.78 2.64 17.61 17.61 0 01.61 5.24 17.64 17.64 0 01-.61 5.25 4.75 4.75 0 01-1.77 2.64 5 5 0 01-2.79.76zm0-1.44a2.1 2.1 0 001.11-.33 2.86 2.86 0 001-1.11 7.47 7.47 0 00.67-2.2 21.9 21.9 0 00.24-3.57 21.68 21.68 0 00-.24-3.56 7.47 7.47 0 00-.67-2.2 2.79 2.79 0 00-1-1.11 2 2 0 00-2.23 0 2.77 2.77 0 00-1 1.11 7.18 7.18 0 00-.67 2.2 21.68 21.68 0 00-.24 3.56 21.9 21.9 0 00.24 3.57 7.18 7.18 0 00.67 2.2 2.85 2.85 0 001 1.11 2.11 2.11 0 001.12.33zM58.7 17.05l1-16.81h2.64l3.91 11.52h.1L70.22.24h2.65l1 16.81h-2.21l-.71-12.49h-.13l-3.48 10.33h-2.16L61.7 4.56h-.12l-.72 12.49zM75.58 17.05L79.71.24h3.12l4.08 16.81h-2.16l-1.08-4.35h-4.8l-1.08 4.32zm3.61-6h4.08l-2-8.4h-.1zM89.07 17.05V.48a11.76 11.76 0 011.84-.37 17.6 17.6 0 012-.11A7.43 7.43 0 0196 .55a3.36 3.36 0 011.68 1.86A10.2 10.2 0 0198.19 6a11 11 0 01-.49 3.7 3.39 3.39 0 01-1.5 1.89 5.29 5.29 0 01-2.57.56 12 12 0 01-1.23-.08c-.48 0-.86-.1-1.17-.16v5.16zm2.16-6.61h1.68a3.64 3.64 0 001.78-.38 2.33 2.33 0 001-1.36 9 9 0 00.32-2.7 9 9 0 00-.32-2.71 2.28 2.28 0 00-1-1.34 3.64 3.64 0 00-1.78-.39h-1.68zM103.23 17.05V1.92h-3.84V.24h9.85v1.68h-3.84v15.13z"/></g></svg><svg viewBox="0 0 141 38" id="red-button" xmlns="http://www.w3.org/2000/svg"><path d="M121.632 0H3C1.35 0 0 1.35 0 3v32c0 1.65 1.35 3 3 3h118.632L141 19 121.632 0z"/></svg></svg>