<svg id="logo" data-name="logo" xmlns="http://www.w3.org/2000/svg" viewBox="0 0 147.27 17.78"><g style="isolation:isolate"><path d="M6.41,17.35V2.19H.74v-2H14.37v2H8.68V17.35Z" transform="translate(-0.74 0.14)"/><path d="M16.75,17.35V.16H29.17v2H19V7.45h9.51v2H19v5.85H29.57v2Z" transform="translate(-0.74 0.14)"/><path d="M31,17.35l6.64-9L31.75.16h2.71l3.12,4.41A23.39,23.39,0,0,1,39,6.68a21.91,21.91,0,0,1,1.36-2L43.78.16h2.47l-6,8.1,6.51,9.09H43.91l-4.33-6.13c-.24-.36-.49-.74-.75-1.15-.38.62-.66,1-.82,1.29l-4.31,6Z" transform="translate(-0.74 0.14)"/><path d="M48.79,17.35V.16h2.28V7.22H60V.16h2.28V17.35H60V9.25H51.07v8.1Z" transform="translate(-0.74 0.14)"/><path d="M65.37,9a9.33,9.33,0,0,1,2.3-6.7A7.79,7.79,0,0,1,73.6-.14,8.28,8.28,0,0,1,77.89,1,7.43,7.43,0,0,1,80.8,4.16a10.32,10.32,0,0,1,1,4.62,10.08,10.08,0,0,1-1.06,4.68,7.22,7.22,0,0,1-3,3.12,8.51,8.51,0,0,1-4.17,1.06,8.16,8.16,0,0,1-4.34-1.17,7.52,7.52,0,0,1-2.89-3.2A9.64,9.64,0,0,1,65.37,9Zm2.34,0a6.89,6.89,0,0,0,1.68,4.9,5.83,5.83,0,0,0,8.41,0,7.27,7.27,0,0,0,1.66-5.12,8.9,8.9,0,0,0-.71-3.67,5.4,5.4,0,0,0-2.07-2.42,5.58,5.58,0,0,0-3.07-.87,5.83,5.83,0,0,0-4.15,1.66C68.3,4.58,67.71,6.43,67.71,9Z" transform="translate(-0.74 0.14)"/><path d="M84.67,17.35V.16h3.42l4.07,12.17c.37,1.13.65,2,.82,2.54.19-.62.5-1.54.91-2.75L98,.16h3.06V17.35H98.88V3l-5,14.39h-2l-5-14.63V17.35Z" transform="translate(-0.74 0.14)"/><path d="M102.85,17.35,109.45.16h2.45l7,17.19h-2.59l-2-5.21h-7.19l-1.89,5.21Zm5-7.06h5.82l-1.79-4.76c-.55-1.45-1-2.63-1.22-3.56a22.06,22.06,0,0,1-.93,3.28Z" transform="translate(-0.74 0.14)"/><path d="M120.75,17.35V.16h6.48a15.62,15.62,0,0,1,2.62.17,5.1,5.1,0,0,1,2.12.8,4.12,4.12,0,0,1,1.37,1.66,5.22,5.22,0,0,1,.53,2.34,5.29,5.29,0,0,1-1.4,3.71q-1.4,1.52-5,1.52H123v7Zm2.27-9h4.45a4.7,4.7,0,0,0,3.13-.82,3,3,0,0,0,.92-2.31A3.1,3.1,0,0,0,131,3.36a2.59,2.59,0,0,0-1.44-1,9.84,9.84,0,0,0-2.12-.15H123Z" transform="translate(-0.74 0.14)"/><path d="M140.06,17.35V2.19h-5.67v-2H148v2h-5.69V17.35Z" transform="translate(-0.74 0.14)"/></g></svg>
